<?xml version="1.0" encoding="UTF-8"?>
<svg id="Camada_2" data-name="Camada 2" xmlns="http://www.w3.org/2000/svg" viewBox="0 0 4.54 4.54">
  <defs>
    <style>
      .cls-1 {
        fill: #2a393a;
      }

      .cls-2 {
        fill: #3a2b39;
      }

      .cls-3 {
        fill: #fe1900;
      }

      .cls-4 {
        fill: #fc1201;
      }

      .cls-5 {
        fill: #fefeff;
      }

      .cls-6 {
        fill: #00e801;
      }

      .cls-7 {
        fill: #02f104;
      }

      .cls-8 {
        fill: #373737;
      }

      .cls-9 {
        fill: #fefefe;
      }
    </style>
  </defs>
  <g id="Camada_1-2" data-name="Camada 1">
    <g>
      <path class="cls-5" d="m0,4.54V0h4.54v4.54H0Zm.4-1.9c-.1.07-.06.14,0,.21.07.19.2.34.35.47.29.24.63.35,1.01.32.07,0,.15,0,.19-.04.03-.03,0-.12.01-.19.04-.03.07-.05.11-.08.04,0,.07-.01.11-.02q.02.18.2.18c.07,0,.14,0,.21,0,.09,0,.14-.03.16-.12.04-.23.09-.46.14-.69.07-.35.14-.7.21-1.05.03-.14.07-.28.1-.43-.17,0-.32,0-.47,0-.09,0-.16,0-.15.14-.09-.05-.16-.1-.22-.14-.05,0-.11,0-.16,0-.15-.02-.31-.04-.46-.05-.13,0-.26.03-.39.02-.38-.02-.61.2-.79.49-.17.26-.19.54-.16.83,0,.05.02.09.02.14Zm3.78-1.48c-.2,0-.38,0-.56,0-.02,0-.06.04-.06.06-.02.13-.03.26-.05.39-.03.24-.06.49-.11.73-.01.07,0,.09.07.09.1,0,.19,0,.29,0,.04,0,.1-.05.12-.09.05-.13.08-.27.11-.4.07-.26.13-.51.2-.78Zm-.71,2.29c.13,0,.32-.19.31-.32,0-.14-.18-.29-.33-.29-.16,0-.3.14-.29.3,0,.16.15.31.32.31Z"/>
      <path class="cls-8" d="m2.34,1.21c.07.04.14.08.22.14,0-.13.06-.15.15-.14.15,0,.3,0,.47,0-.04.15-.07.29-.1.43-.07.35-.14.7-.21,1.05-.05.23-.1.46-.14.69-.02.09-.06.13-.16.12-.07,0-.14,0-.21,0q-.18,0-.2-.18s-.07.01-.11.02c0-.19-.09-.22-.19-.15-.02-.06-.03-.13-.05-.19.05-.03.11-.06.15-.09.18-.16.31-.34.32-.6,0-.23-.1-.4-.26-.55.07-.13.13-.26.2-.39.03-.05.07-.09.1-.14Z"/>
      <path class="cls-6" d="m.37,2.5c-.03-.29,0-.58.16-.83.19-.29.41-.51.79-.49.13,0,.26-.02.39-.02.15,0,.31.03.46.05-.08.16-.15.32-.23.48-.06,0-.13.04-.19.02-.32-.1-.77.13-.77.54-.02,0-.05,0-.06.02-.04.04-.06.11-.1.12-.15.05-.3.07-.45.11Z"/>
      <path class="cls-3" d="m1.83,2.98c.02.06.03.13.05.19.03.08.05.15.08.23,0,.06.02.15-.01.19-.04.04-.13.04-.19.04-.38.04-.72-.07-1.01-.32-.15-.13-.28-.28-.35-.47.15-.08.31-.16.47-.24-.04-.02-.06-.04-.09-.05.08-.03.17-.07.25-.1.06.05.12.1.17.16.11.1.22.2.38.2.05,0,.11,0,.15,0,.04.07.07.13.11.18Z"/>
      <path class="cls-8" d="m4.17,1.15c-.07.27-.13.53-.2.78-.03.13-.06.27-.11.4-.01.04-.07.08-.12.09-.09.01-.19,0-.29,0-.06,0-.08-.02-.07-.09.04-.24.07-.48.11-.73.02-.13.03-.26.05-.39,0-.02.04-.06.06-.06.18,0,.37,0,.56,0Z"/>
      <path class="cls-8" d="m3.46,3.45c-.16,0-.31-.15-.32-.31,0-.16.13-.29.29-.3.15,0,.32.14.33.29,0,.12-.18.31-.31.32Z"/>
      <path class="cls-7" d="m1.01,2.44c-.08.03-.17.07-.25.1-.02,0-.05.02-.07.03-.1.02-.2.04-.3.06,0-.05-.02-.09-.02-.14.15-.04.31-.06.45-.11.04-.01.06-.08.1-.12.01-.01.04-.02.06-.02,0,.07.02.13.02.2Z"/>
      <path class="cls-2" d="m1.94,1.68c.08-.16.15-.32.23-.48.05,0,.11,0,.16,0-.03.05-.08.09-.1.14-.07.13-.13.26-.2.39-.03-.02-.06-.04-.09-.05Z"/>
      <path class="cls-4" d="m.4,2.64c.1-.02.2-.04.3-.06.02,0,.05-.02.07-.03.03.02.06.03.09.05-.16.08-.31.16-.47.24-.06-.07-.1-.14,0-.21Z"/>
      <path class="cls-1" d="m1.95,3.4c-.03-.08-.05-.15-.08-.23.1-.06.18-.03.19.15-.04.03-.07.05-.11.08Z"/>
      <path class="cls-9" d="m1.94,1.68s.06.04.09.05c.16.15.26.32.26.55,0,.26-.13.44-.32.6-.04.04-.1.06-.15.09-.03-.06-.07-.12-.11-.18-.05,0-.1,0-.15,0-.16,0-.27-.09-.38-.2-.06-.05-.12-.11-.17-.16,0-.07-.02-.13-.02-.2,0-.4.45-.64.77-.54.05.02.12-.01.19-.02Z"/>
    </g>
  </g>
</svg>